<svg xmlns="http://www.w3.org/2000/svg" xmlns:xlink="http://www.w3.org/1999/xlink" xml:space="preserve" version="1.1" style="shape-rendering:geometricPrecision;text-rendering:geometricPrecision;image-rendering:optimizeQuality;" viewBox="0 0 731 970" x="0px" y="0px" fill-rule="evenodd" clip-rule="evenodd"><defs><style type="text/css">
   
    .fil0 {fill:black}
   
  </style></defs><g><path class="fil0" d="M509 515c79,-3 112,35 95,107 43,-2 64,19 53,60 32,-7 40,25 40,25 -16,-13 -25,-21 -43,-13 -2,-3 -5,-5 -8,-5 -4,0 -8,4 -8,8 0,5 4,9 8,9 0,0 1,0 1,0 -5,7 -11,14 -19,18 0,0 0,-1 0,-1 0,-5 -4,-8 -9,-8 -4,0 -8,3 -8,8 0,3 1,6 4,7 -4,14 -4,27 8,43 0,0 -29,-8 -19,-42 -25,4 -51,-6 -55,-35 -82,26 -120,-9 -119,-100 0,0 68,-3 79,-81zm-79 138l-43 31 42 -38 1 7zm7 19l-41 56 37 -68 4 12zm44 35l4 69 -14 -74 10 5zm110 -178l67 -19 -76 12 9 7zm16 22l124 -8 -130 -3 6 11zm-241 -19l-46 59 32 -57 -62 25c0,0 66,-35 68,-37 2,6 9,9 8,10zm26 -138c1,-18 4,-37 5,-54 1,17 1,33 1,50 11,-13 21,-27 32,-40 0,0 -30,47 -30,49 -2,-1 -6,-4 -8,-5zm94 105l43 -37 -33 37 51 -8c0,0 -54,14 -56,15 0,-3 -4,-6 -5,-7zm-462 -499c-8,14 -7,47 -3,59 -13,-21 -10,-37 -18,-56 -14,103 24,155 48,161 19,5 33,-13 35,-30 -1,-17 -52,-21 -62,-134zm70 147c1,18 -12,30 -40,34 3,35 28,49 49,42 15,-4 27,-17 33,-30 10,-27 -19,-47 -42,-46zm58 36c1,22 -21,51 -54,56 2,34 27,42 50,29 21,-11 41,-29 43,-51 -1,-21 -17,-35 -39,-34zm53 37c1,24 -40,67 -71,69 2,35 53,46 77,33 21,-11 37,-39 37,-55 -1,-21 -20,-47 -43,-47zm56 54c-7,27 -30,57 -68,66 2,35 51,49 75,36 21,-12 39,-34 36,-59 0,-21 -21,-43 -43,-43zm58 56c-4,26 -30,59 -61,64 2,35 42,53 66,40 21,-11 38,-37 38,-59 -1,-21 -21,-46 -43,-45zm53 64c-7,27 -24,48 -56,57 1,35 35,44 59,31 20,-12 31,-34 31,-50 -1,-21 -12,-38 -34,-38zm45 53c-8,27 -25,47 -57,56 2,35 30,35 54,22 20,-11 35,-30 34,-47 0,-21 -9,-32 -31,-31zm45 48c-8,27 -25,47 -57,57 2,35 30,34 54,21 20,-11 35,-30 34,-46 0,-21 -9,-33 -31,-32z"/></g><text x="0" y="791" fill="#000000" font-size="5px" font-weight="bold" font-family="'Helvetica Neue', Helvetica, Arial-Unicode, Arial, Sans-serif">Created by panji</text><text x="0" y="796" fill="#000000" font-size="5px" font-weight="bold" font-family="'Helvetica Neue', Helvetica, Arial-Unicode, Arial, Sans-serif">from the Noun Project</text></svg>